<?xml version="1.0" standalone="no"?>
<!DOCTYPE svg PUBLIC "-//W3C//DTD SVG 20010904//EN"
 "http://www.w3.org/TR/2001/REC-SVG-20010904/DTD/svg10.dtd">
<svg version="1.0" xmlns="http://www.w3.org/2000/svg"
 width="1648.000000pt" height="1648.000000pt" viewBox="0 0 1648.000000 1648.000000"
 preserveAspectRatio="xMidYMid meet">
<metadata>
Created by potrace 1.11, written by Peter Selinger 2001-2013
</metadata>
<g transform="translate(0.000000,1648.000000) scale(0.100000,-0.100000)"
fill="#000000" stroke="none">
<path d="M8060 16060 c0 -3 -15 -6 -33 -6 -105 -5 -166 -57 -181 -155 -8 -55
-22 -84 -50 -106 -14 -11 -22 -23 -19 -27 6 -5 -5 -8 -23 -5 -4 0 -10 -3 -13
-8 -10 -14 -46 -31 -92 -44 -88 -25 -113 -28 -237 -34 -61 -3 -122 -9 -136
-15 -14 -5 -26 -8 -26 -5 0 2 -20 -4 -45 -15 -54 -23 -133 -94 -141 -127 -4
-13 -9 -23 -13 -23 -4 0 -8 -6 -9 -12 0 -7 -8 -40 -18 -73 -13 -47 -17 -99
-18 -235 0 -96 3 -209 7 -250 29 -329 18 -399 -64 -425 -79 -26 -177 8 -504
171 -115 58 -220 106 -232 107 -13 1 -23 5 -23 9 0 3 -8 6 -17 6 -10 0 -31 3
-48 6 -49 12 -69 13 -93 4 -14 -5 -21 -4 -17 2 7 11 -48 -5 -87 -26 -16 -8
-28 -13 -28 -9 0 5 -71 -38 -97 -60 -171 -139 -288 -280 -330 -395 -24 -66
-27 -177 -8 -270 7 -36 13 -65 13 -65 0 0 9 -34 21 -75 24 -80 36 -118 101
-300 22 -63 40 -116 40 -117 0 -4 2 -10 19 -73 6 -25 15 -52 18 -60 3 -8 6
-18 5 -22 -1 -3 5 -39 12 -79 8 -40 14 -118 14 -174 1 -237 -98 -350 -289
-332 -33 4 -64 9 -70 12 -5 4 -21 9 -35 11 -33 6 -173 72 -196 92 -10 8 -18
12 -18 7 0 -4 -7 -2 -15 5 -44 36 -163 93 -256 121 -73 22 -172 29 -259 17
-141 -18 -311 -165 -392 -338 -50 -107 -57 -126 -86 -240 -27 -102 -34 -136
-48 -240 -23 -169 -24 -504 0 -625 2 -11 7 -42 10 -68 12 -80 45 -217 73 -297
8 -25 16 -52 18 -60 2 -8 4 -16 5 -17 2 -2 3 -6 5 -10 1 -5 7 -21 13 -36 7
-16 12 -31 12 -35 1 -4 9 -25 20 -47 11 -22 19 -43 20 -47 0 -3 17 -42 37 -85
20 -43 37 -80 37 -83 3 -17 173 -336 225 -420 5 -8 32 -52 60 -97 28 -45 51
-84 51 -88 0 -3 8 -15 18 -26 11 -10 25 -32 33 -47 8 -15 22 -36 32 -46 9 -11
17 -26 17 -33 0 -7 9 -21 20 -30 11 -10 20 -21 20 -25 0 -10 63 -102 73 -106
4 -2 7 -8 7 -14 0 -6 10 -25 23 -42 41 -55 217 -342 217 -354 0 -7 4 -12 9
-12 5 0 12 -11 15 -25 4 -14 11 -25 16 -25 6 0 10 -9 10 -20 0 -11 4 -20 9
-20 5 0 13 -10 17 -22 4 -13 24 -60 45 -104 71 -149 86 -278 40 -342 -48 -68
-306 -212 -425 -236 -79 -17 -97 -27 -134 -74 -54 -68 -112 -232 -127 -357 -2
-22 -8 -62 -11 -90 -8 -62 -9 -270 -1 -345 16 -148 44 -268 83 -358 13 -29 23
-55 23 -58 0 -2 9 -16 21 -31 11 -14 20 -30 20 -34 0 -20 264 -429 283 -437 4
-2 7 -10 7 -18 0 -8 5 -14 10 -14 6 0 10 -5 10 -10 0 -10 20 -40 135 -201 97
-136 142 -201 180 -256 19 -29 41 -58 48 -65 7 -7 32 -41 56 -75 24 -35 47
-63 50 -63 3 0 12 -12 18 -27 7 -16 25 -41 39 -58 14 -16 47 -59 72 -95 26
-36 49 -67 52 -70 3 -3 17 -21 30 -40 13 -19 27 -37 30 -40 16 -15 70 -90 70
-99 0 -5 3 -11 8 -13 13 -6 152 -194 152 -206 0 -7 4 -12 9 -12 5 0 18 -16 30
-35 11 -20 25 -41 31 -48 19 -22 95 -131 130 -187 19 -30 38 -57 42 -58 5 -2
8 -8 8 -14 0 -5 8 -22 19 -36 53 -75 110 -202 118 -262 2 -19 5 -44 7 -55 5
-35 -52 -143 -77 -144 -4 -1 -13 -6 -20 -11 -7 -6 -48 -34 -92 -62 -149 -97
-248 -218 -289 -356 -15 -51 -17 -214 -3 -267 10 -40 48 -151 63 -182 8 -18
14 -36 14 -39 -1 -4 3 -10 8 -13 5 -3 17 -22 27 -41 17 -33 113 -179 125 -190
3 -3 25 -30 50 -60 84 -103 213 -235 335 -341 27 -24 60 -54 73 -67 12 -12 27
-22 32 -22 4 0 10 -3 12 -8 2 -4 28 -28 57 -52 74 -61 162 -143 230 -214 31
-32 65 -68 76 -80 45 -46 132 -168 168 -235 53 -98 68 -178 50 -256 -25 -104
-7 -199 64 -340 35 -69 106 -184 136 -221 9 -10 45 -56 81 -100 36 -45 123
-140 194 -210 226 -225 553 -539 565 -542 7 -1 28 12 47 30 20 18 66 60 104
93 38 33 86 76 106 95 21 19 57 51 80 70 23 19 56 49 74 65 18 17 61 55 95 85
35 30 73 64 85 75 12 11 53 47 91 80 38 33 86 77 108 98 22 20 41 37 42 37 2
0 33 31 70 69 205 213 291 329 335 455 24 66 13 94 -55 140 -29 21 -71 62 -92
93 -34 49 -38 62 -38 117 0 96 35 156 166 286 71 71 90 87 154 134 14 11 38
30 53 43 15 13 45 36 67 51 22 15 42 29 45 32 3 3 12 10 22 15 41 25 144 99
150 109 4 6 8 7 8 3 0 -5 6 -2 13 5 8 7 26 22 41 33 32 23 78 59 121 95 64 53
234 228 281 290 27 36 51 67 54 70 6 5 36 51 57 85 7 11 22 40 35 65 13 25 26
47 31 48 4 2 7 10 7 18 0 8 4 22 10 32 82 149 106 370 55 515 -28 82 -120 207
-152 207 -8 0 -11 4 -8 10 3 6 -1 10 -10 10 -8 0 -18 7 -21 15 -4 8 -11 15
-18 15 -15 0 -85 66 -112 105 -11 17 -28 50 -38 74 -26 67 -23 204 7 281 3 8
11 33 18 55 6 22 16 46 22 52 5 7 6 13 3 13 -4 0 2 13 13 29 12 16 21 34 21
39 0 11 31 74 41 82 3 3 14 21 24 40 19 37 162 257 179 277 6 6 29 36 51 67
22 31 43 56 47 56 4 0 8 5 8 11 0 6 9 21 20 33 10 11 90 109 176 216 86 107
171 213 189 235 37 44 171 221 195 256 8 12 25 34 38 49 12 15 22 31 22 36 0
4 7 14 16 23 31 31 260 375 328 491 58 100 146 269 146 280 0 6 7 21 15 34 9
13 17 32 20 42 2 11 11 39 20 64 16 43 49 174 59 234 16 90 28 316 17 316 -3
0 -6 16 -5 34 1 42 -17 150 -33 201 -4 11 -8 26 -10 33 -2 6 -4 18 -6 25 -2 6
-18 42 -37 79 -43 89 -114 167 -181 200 -60 30 -87 36 -192 43 -111 8 -215 44
-264 91 -7 7 -16 14 -20 16 -5 1 -20 21 -34 43 -71 109 -71 236 0 406 27 65
109 203 130 219 4 3 16 17 26 31 11 14 45 54 75 89 30 35 65 75 77 89 13 14
28 32 35 40 7 8 23 29 36 45 12 17 36 47 52 66 44 51 150 189 150 195 0 5 25
36 48 61 7 8 11 14 7 14 -4 0 0 7 7 15 30 33 119 166 151 225 11 19 22 37 26
40 7 6 22 32 111 195 18 33 37 66 43 73 5 6 7 12 3 12 -3 0 10 31 29 69 19 37
35 71 35 74 0 4 11 30 23 59 13 29 32 76 41 103 10 28 20 57 23 65 4 8 7 17 7
20 1 3 5 11 9 18 5 6 6 12 2 12 -3 0 -1 8 4 18 6 11 13 32 16 48 3 16 7 34 9
39 1 6 8 28 14 50 6 22 14 55 17 74 3 19 8 37 10 40 2 4 6 27 10 51 3 25 8 52
10 60 7 25 16 111 20 177 1 33 5 65 7 70 3 4 3 87 2 183 -3 190 -9 285 -28
390 -3 19 -7 49 -10 65 -6 49 -58 239 -67 250 -5 5 -9 15 -9 22 0 23 -77 176
-105 209 -5 7 -19 24 -30 40 -46 65 -191 174 -231 174 -8 0 -25 5 -36 11 -24
13 -217 19 -224 7 -3 -4 -14 -8 -24 -8 -44 0 -166 -51 -275 -115 -145 -85
-273 -126 -395 -126 -41 0 -84 2 -95 4 -65 16 -84 22 -118 40 -37 19 -78 55
-107 93 -47 61 -47 162 -1 255 31 64 48 87 119 164 43 47 102 122 118 150 54
98 63 115 59 115 -2 0 5 20 16 45 20 45 27 69 33 110 2 11 4 20 5 20 13 0 19
257 8 315 -7 36 -14 70 -21 105 -17 80 -94 250 -133 293 -7 7 -13 17 -13 21 0
18 -170 181 -189 181 -5 0 -11 4 -13 8 -5 13 -135 72 -163 74 -14 1 -25 5 -25
9 0 4 -14 6 -31 5 -16 -1 -32 1 -34 4 -6 10 -220 -8 -220 -19 0 -2 -10 -4 -22
-7 -13 -2 -51 -17 -86 -34 -35 -16 -69 -30 -75 -30 -7 0 -12 -4 -12 -8 0 -9
-65 -44 -90 -48 -8 -2 -16 -8 -18 -13 -2 -6 -8 -11 -13 -11 -6 0 -34 -11 -62
-24 -167 -77 -220 -92 -289 -82 -41 6 -47 11 -63 46 -19 42 -23 96 -12 175 9
62 24 140 27 140 1 0 3 9 5 20 3 11 7 34 11 50 3 17 7 40 7 53 1 12 5 22 9 22
3 0 5 11 3 25 -1 14 1 25 5 25 9 0 9 5 14 120 10 263 -106 372 -687 649 -59
28 -110 51 -113 51 -2 0 -23 9 -47 19 -153 68 -385 144 -482 157 -16 2 -48 7
-70 10 -59 8 -105 10 -105 4z m205 -1396 c9 -4 25 -24 36 -46 23 -44 64 -199
73 -273 4 -27 9 -63 12 -79 3 -15 8 -47 10 -70 2 -22 6 -63 8 -91 3 -27 7 -75
10 -105 9 -99 19 -263 20 -337 0 -40 4 -73 9 -73 5 0 4 -7 -3 -15 -7 -8 -8
-20 -4 -27 5 -7 9 -447 10 -978 1 -531 2 -971 3 -978 1 -8 13 1 29 19 15 18
38 45 52 59 14 15 57 62 95 106 39 43 84 93 100 111 17 17 48 53 70 78 22 26
54 61 70 79 17 17 62 67 101 111 40 44 83 92 95 106 13 14 53 59 89 99 36 40
76 85 90 100 14 15 57 63 95 106 39 43 78 86 88 96 9 10 17 23 17 28 0 6 7 10
15 10 8 0 15 5 15 11 0 13 339 351 409 409 61 51 83 68 113 96 15 13 30 24 33
24 3 0 11 4 18 10 83 68 209 144 261 158 43 12 65 7 86 -22 19 -28 23 -43 22
-94 -2 -84 -55 -152 -187 -242 -44 -30 -96 -68 -115 -85 -48 -40 -286 -282
-335 -340 -22 -25 -53 -62 -70 -80 -45 -51 -99 -115 -140 -165 -21 -25 -50
-61 -66 -80 -104 -127 -136 -169 -224 -285 -55 -71 -102 -132 -105 -135 -3 -3
-25 -34 -50 -70 -24 -36 -48 -69 -52 -75 -5 -5 -31 -41 -58 -80 -27 -38 -53
-74 -57 -80 -19 -23 -171 -263 -194 -305 -13 -25 -26 -47 -29 -50 -21 -21
-148 -312 -166 -380 -2 -8 -14 -55 -28 -105 -28 -105 -52 -233 -62 -325 -3
-36 -8 -78 -10 -95 -12 -111 -17 -399 -18 -1006 -1 -661 0 -695 17 -685 9 6
17 14 17 18 0 5 16 26 36 48 20 22 33 40 28 40 -5 0 2 7 14 16 12 8 22 19 22
25 0 5 8 17 18 28 9 10 27 31 39 47 65 84 86 110 96 116 7 4 8 8 3 8 -6 0 -1
9 10 20 21 21 21 21 79 98 21 28 43 52 47 52 4 0 7 3 6 8 -2 4 6 18 17 30 11
13 28 33 38 44 9 12 17 24 17 28 0 4 10 18 23 31 13 13 52 62 88 109 35 47 69
90 74 96 16 18 36 44 99 124 33 41 67 83 75 92 9 10 25 29 36 43 11 14 34 41
50 59 17 18 55 61 85 97 65 76 540 550 630 629 35 30 75 66 90 80 14 14 46 41
71 61 24 20 54 45 65 55 12 11 38 33 59 49 20 17 46 38 58 49 12 10 69 55 127
99 58 45 107 85 108 89 2 5 8 8 13 8 7 0 54 32 119 83 25 20 189 127 194 127
3 0 31 17 63 38 87 56 251 135 349 167 108 35 216 19 240 -37 17 -37 10 -101
-18 -154 -31 -59 -118 -156 -167 -186 -20 -12 -38 -24 -41 -27 -12 -13 -91
-51 -170 -82 -140 -55 -272 -132 -423 -245 -31 -24 -61 -44 -66 -44 -5 0 -11
-4 -13 -9 -2 -5 -39 -37 -83 -72 -44 -35 -94 -76 -110 -91 -17 -15 -41 -36
-55 -48 -181 -154 -587 -561 -781 -782 -13 -15 -46 -52 -74 -84 -27 -31 -56
-66 -64 -78 -9 -11 -21 -25 -27 -31 -7 -5 -49 -55 -94 -110 -44 -55 -89 -111
-100 -123 -11 -13 -20 -27 -20 -32 0 -5 -4 -10 -9 -12 -4 -1 -37 -41 -72 -88
-35 -47 -67 -89 -71 -95 -5 -5 -35 -48 -67 -95 -33 -47 -64 -90 -70 -97 -6 -7
-11 -14 -11 -17 0 -4 -14 -27 -60 -96 -59 -88 -102 -156 -103 -164 -1 -6 -5
-13 -8 -16 -4 -3 -24 -34 -46 -70 -90 -149 -196 -379 -238 -520 -1 -3 -5 -14
-9 -25 -4 -11 -13 -33 -19 -50 -6 -16 -12 -34 -13 -40 -5 -28 -14 -63 -23 -92
-5 -18 -8 -33 -6 -33 3 0 0 -11 -5 -26 -6 -14 -12 -39 -15 -57 -3 -18 -12 -68
-20 -112 -8 -44 -17 -100 -20 -125 -11 -99 -16 -148 -21 -220 -7 -83 -12
-1168 -6 -1187 2 -8 12 -4 26 10 13 12 73 69 135 127 62 58 130 121 150 140
21 19 84 78 141 130 57 52 125 115 151 140 26 25 71 65 100 90 28 25 60 53 71
63 10 9 23 17 28 17 6 0 10 4 10 9 0 5 26 28 58 52 31 23 59 46 60 51 2 4 10
8 17 8 7 0 15 4 17 9 4 11 93 82 208 166 52 38 97 72 98 77 2 4 8 8 12 8 8 0
120 78 157 110 7 5 16 10 20 10 4 0 21 11 37 25 16 14 33 25 37 25 4 0 14 6
21 13 14 13 157 110 173 116 5 2 14 8 20 13 28 23 101 68 113 68 6 0 12 3 12
8 0 4 13 13 28 20 16 6 37 20 48 30 11 9 36 25 55 35 66 36 94 52 99 57 6 6
68 40 185 100 44 23 87 45 95 50 24 13 103 47 130 55 14 4 30 11 35 15 13 10
89 24 135 25 93 2 152 -37 145 -97 -3 -17 -11 -38 -18 -47 -8 -9 -16 -21 -18
-27 -7 -22 -78 -93 -141 -142 -100 -78 -214 -145 -412 -242 -101 -50 -201
-102 -221 -116 -20 -13 -42 -26 -48 -27 -7 -1 -14 -5 -17 -8 -3 -3 -52 -37
-110 -76 -162 -108 -339 -240 -333 -247 4 -3 2 -6 -4 -6 -9 0 -149 -102 -163
-119 -3 -3 -34 -31 -70 -61 -36 -30 -72 -61 -82 -70 -9 -8 -44 -40 -79 -70
-122 -107 -499 -470 -619 -597 -57 -59 -160 -177 -183 -208 -4 -5 -23 -31 -42
-57 -19 -26 -35 -52 -35 -57 0 -6 -3 -11 -8 -11 -10 0 -118 -199 -122 -225 -1
-7 -11 -36 -25 -75 -7 -20 -16 -53 -19 -74 -4 -21 -8 -42 -11 -46 -3 -4 -7
-23 -9 -41 -3 -19 -7 -47 -10 -64 -7 -42 -14 -113 -22 -241 -8 -131 -11 -1384
-3 -1384 3 0 15 9 27 20 12 11 24 20 27 20 4 0 12 6 20 12 7 7 39 31 70 53 32
22 74 54 95 70 21 17 47 37 59 45 13 8 95 68 184 134 222 162 343 246 356 246
6 0 11 5 11 10 0 6 10 15 23 20 12 5 40 21 62 35 104 66 249 125 307 125 29 0
62 -35 50 -54 -3 -6 -7 -17 -8 -24 -10 -64 -127 -216 -297 -386 -132 -131
-243 -236 -251 -236 -2 0 -43 -38 -193 -181 -78 -75 -160 -162 -208 -224 -22
-28 -46 -57 -53 -65 -37 -43 -52 -64 -52 -72 0 -4 -8 -16 -17 -26 -19 -20 -34
-45 -89 -150 -18 -34 -31 -62 -27 -62 3 0 1 -6 -4 -12 -15 -19 -52 -132 -68
-207 -17 -82 -25 -162 -31 -316 -2 -66 -6 -133 -8 -150 -3 -16 -7 -50 -10 -75
-5 -40 -8 -58 -21 -110 -2 -8 -4 -15 -5 -15 -1 0 -3 -10 -6 -23 -8 -42 -55
-131 -85 -162 -19 -18 -41 -30 -57 -30 -58 0 -119 90 -153 225 -6 28 -15 55
-19 60 -3 6 -6 25 -6 43 1 17 -1 32 -4 32 -3 0 -6 8 -6 18 -1 9 -4 51 -9 92
-4 41 -9 118 -10 170 -7 184 -16 281 -41 390 -13 62 -41 150 -61 196 -9 21
-16 42 -15 47 1 4 -2 7 -8 7 -6 0 -9 3 -8 8 2 11 -31 80 -42 87 -6 4 -8 11 -5
16 4 5 2 9 -3 9 -4 0 -16 15 -25 33 -16 29 -31 52 -85 126 -27 38 -73 95 -81
101 -4 3 -17 19 -30 35 -12 17 -107 118 -211 225 -214 221 -232 240 -280 300
-19 24 -44 53 -55 64 -33 34 -105 134 -105 146 0 5 -4 10 -8 10 -8 0 -32 41
-38 63 -1 4 -2 8 -4 10 -1 1 -4 14 -6 29 -4 22 0 29 19 33 27 7 73 2 83 -8 4
-4 13 -7 21 -7 7 0 41 -17 76 -38 34 -21 73 -45 87 -53 14 -8 27 -17 30 -20 3
-3 32 -25 65 -50 64 -47 104 -80 142 -117 12 -13 23 -21 23 -19 0 2 19 -14 43
-37 24 -23 85 -79 136 -126 51 -47 105 -96 120 -110 15 -14 71 -65 125 -115
54 -49 104 -96 112 -103 7 -6 16 -12 21 -12 9 0 10 1316 1 1325 -3 4 -2 20 3
37 4 17 6 35 3 40 -4 5 -8 62 -9 126 -3 107 -10 197 -20 262 -20 132 -19 129
-38 200 -22 79 -55 171 -67 185 -6 7 -13 23 -15 36 -3 12 -8 25 -12 28 -5 3
-23 31 -42 61 -88 145 -360 429 -661 690 -35 30 -73 64 -86 75 -83 75 -233
195 -243 195 -5 0 -11 4 -13 8 -1 5 -46 42 -98 83 -52 41 -96 77 -98 82 -2 4
-8 7 -13 7 -8 0 -117 79 -147 108 -7 6 -17 12 -21 12 -4 0 -16 8 -27 18 -11 9
-49 37 -84 61 -36 25 -66 48 -68 53 -2 4 -8 8 -14 8 -9 0 -96 56 -108 69 -3 3
-18 14 -35 24 -16 10 -78 46 -136 81 -58 35 -139 82 -180 103 -126 67 -194
107 -197 115 -2 4 -8 8 -14 8 -16 0 -180 116 -229 163 -108 102 -110 151 -7
181 59 17 180 11 253 -11 11 -4 26 -8 33 -10 32 -8 52 -15 97 -33 11 -4 45
-18 75 -30 71 -28 305 -150 376 -195 30 -19 59 -35 64 -35 6 0 10 -4 10 -9 0
-5 16 -16 35 -25 19 -9 35 -21 35 -27 0 -6 5 -7 10 -4 6 3 10 1 10 -4 0 -6 5
-11 11 -11 6 0 38 -20 70 -45 33 -25 63 -45 68 -45 5 0 11 -3 13 -7 2 -5 48
-41 103 -82 55 -41 105 -80 111 -85 6 -6 29 -24 50 -41 21 -16 59 -47 84 -69
25 -21 65 -54 89 -75 24 -20 59 -51 79 -69 20 -19 65 -59 101 -90 35 -31 97
-90 138 -129 41 -40 76 -73 78 -73 2 0 21 -17 42 -37 21 -21 94 -90 162 -153
142 -132 139 -129 292 -271 175 -164 181 -169 188 -169 9 0 7 1213 -3 1228 -4
7 -2 12 4 12 6 0 9 3 7 8 -3 4 -8 70 -12 147 -3 77 -8 156 -10 175 -3 19 -7
60 -10 90 -3 30 -7 66 -10 80 -2 13 -7 40 -10 60 -3 20 -8 47 -11 60 -18 76
-24 101 -38 155 -16 57 -28 96 -46 140 -8 20 -22 55 -25 65 -13 39 -113 243
-146 297 -12 21 -63 102 -113 181 -50 79 -95 151 -101 160 -5 9 -13 19 -16 22
-3 3 -21 28 -39 55 -19 28 -38 55 -42 60 -5 6 -36 49 -70 98 -34 48 -65 87
-70 87 -4 0 -8 4 -8 10 0 5 -6 18 -14 27 -8 10 -56 70 -107 133 -51 63 -98
120 -104 126 -5 6 -29 33 -52 60 -44 51 -48 56 -153 174 -65 73 -451 463 -526
531 -21 20 -77 69 -124 109 -47 40 -94 81 -105 92 -39 36 -296 228 -305 228
-6 0 -10 3 -10 8 0 4 -17 18 -38 32 -20 13 -62 43 -92 67 -106 82 -150 113
-160 113 -6 0 -10 4 -10 8 0 5 -21 24 -47 43 -27 18 -55 39 -63 46 -8 6 -44
33 -80 60 -36 26 -70 52 -76 58 -6 5 -26 21 -44 35 -18 14 -39 31 -46 38 -7 6
-18 12 -24 12 -6 0 -9 4 -5 9 3 5 -3 12 -14 16 -31 10 -178 162 -183 190 -5
26 12 54 35 56 7 0 21 3 32 5 11 3 61 6 111 6 91 1 91 1 198 -52 58 -29 106
-57 106 -61 0 -5 5 -9 11 -9 22 0 371 -253 475 -345 7 -5 26 -21 44 -35 18
-14 37 -29 44 -35 6 -5 43 -37 81 -70 39 -32 78 -66 87 -75 9 -8 35 -31 57
-50 45 -38 165 -147 218 -197 18 -17 33 -30 33 -29 0 7 324 -314 945 -934 369
-369 673 -670 675 -670 3 0 5 248 5 550 0 303 -4 550 -8 550 -5 0 -5 6 0 13
11 17 12 60 1 74 -5 6 -5 14 0 17 9 5 7 138 -2 162 -3 8 -1 16 4 19 5 3 5 18
1 33 -5 15 -5 36 -1 47 4 11 6 23 4 27 -3 4 -7 58 -9 120 -3 62 -8 124 -10
138 -3 14 -7 56 -11 95 -4 38 -8 73 -10 76 -2 4 -6 24 -10 45 -3 22 -12 62
-20 90 -8 28 -16 61 -19 72 -2 11 -8 29 -13 39 -6 10 -11 23 -12 28 -16 66
-104 239 -182 355 -69 104 -110 162 -119 170 -3 3 -18 23 -35 45 -16 22 -33
45 -39 51 -5 6 -21 26 -35 44 -14 18 -32 40 -40 49 -9 9 -36 41 -60 71 -25 30
-52 62 -60 71 -16 17 -103 118 -133 153 -52 62 -115 134 -139 159 -16 16 -28
32 -28 35 0 4 -22 30 -48 57 -26 28 -63 70 -82 94 -19 24 -40 48 -45 55 -6 6
-30 36 -55 66 -25 30 -49 60 -55 66 -5 6 -21 26 -35 44 -26 34 -67 86 -85 106
-30 35 -45 55 -45 63 0 5 -3 11 -7 13 -13 5 -73 86 -73 97 0 5 -4 11 -8 13
-15 5 -142 198 -142 213 0 8 -4 15 -9 15 -11 0 -56 95 -66 138 -5 25 -3 31 13
37 24 7 106 -36 171 -90 225 -186 507 -466 821 -813 14 -16 63 -70 110 -121
47 -51 96 -105 110 -121 14 -15 63 -69 110 -120 47 -51 93 -102 103 -114 16
-18 123 -135 210 -228 15 -17 38 -44 52 -60 14 -17 29 -28 32 -24 4 4 8 428 9
944 3 870 5 1052 18 1237 3 39 8 102 10 140 3 39 8 88 10 110 3 22 8 63 11 90
5 49 10 81 21 147 3 18 6 42 8 53 18 110 59 227 90 258 19 19 26 20 51 11z"/>
</g>
</svg>
