<?xml version="1.0" standalone="no"?>
<!DOCTYPE svg PUBLIC "-//W3C//DTD SVG 20010904//EN"
 "http://www.w3.org/TR/2001/REC-SVG-20010904/DTD/svg10.dtd">
<svg version="1.0" xmlns="http://www.w3.org/2000/svg"
 width="48.000000pt" height="82.000000pt" viewBox="0 0 48.000000 82.000000"
 preserveAspectRatio="xMidYMid meet">
<metadata>
Created by potrace 1.15, written by Peter Selinger 2001-2017
</metadata>
<g transform="translate(0.000000,82.000000) scale(0.100000,-0.100000)" stroke-width="10">
<path d="M220 790 c0 -5 -9 -10 -20 -10 -20 0 -24 -9 -21 -42 3 -21 -3 -22
-31 -7 -16 9 -24 7 -36 -5 -14 -14 -14 -21 -4 -48 14 -38 3 -55 -26 -37 -30
19 -52 -3 -52 -51 0 -27 10 -53 35 -91 27 -40 33 -54 23 -60 -7 -5 -16 -9 -19
-9 -13 0 -18 -44 -7 -64 6 -12 29 -45 51 -74 36 -48 39 -55 24 -63 -27 -16
-20 -45 19 -78 23 -18 35 -35 31 -44 -3 -9 7 -26 23 -42 l29 -28 35 31 c20 17
31 34 26 37 -17 11 -11 22 25 46 34 24 47 60 25 74 -18 11 -11 32 26 76 20 24
40 54 45 68 11 29 3 61 -16 61 -24 0 -28 21 -8 43 37 42 53 77 53 115 0 50
-22 72 -52 53 -25 -16 -50 1 -30 21 31 31 1 89 -37 69 -29 -16 -34 -14 -27 13
5 20 1 27 -26 40 -36 18 -58 20 -58 6z m30 -137 l0 -77 44 49 c24 28 48 46 52
42 5 -5 1 -13 -8 -18 -9 -5 -32 -31 -52 -58 -31 -42 -36 -56 -36 -106 l0 -57
39 50 c34 43 95 92 115 92 14 0 5 -19 -13 -25 -26 -8 -87 -69 -116 -116 -18
-27 -25 -53 -25 -86 l0 -47 28 26 c28 27 91 68 105 68 17 0 5 -16 -22 -28 -17
-7 -48 -31 -70 -53 -37 -35 -41 -44 -41 -89 l0 -51 30 22 c43 32 47 17 5 -19
-26 -23 -35 -40 -35 -62 0 -16 -4 -30 -10 -30 -5 0 -10 15 -10 33 0 24 -8 41
-30 62 -16 16 -28 31 -25 33 3 3 16 -5 30 -18 l25 -23 0 55 c0 52 -3 58 -39
91 -22 20 -54 43 -71 52 -18 9 -30 19 -27 22 11 10 52 -11 93 -49 l44 -41 0
54 c0 45 -6 61 -35 101 -18 25 -51 59 -72 74 -56 41 -59 44 -39 44 10 0 47
-29 82 -64 l64 -64 0 57 c0 53 -3 60 -46 109 -57 65 -53 80 5 17 l41 -45 0 75
c0 43 4 75 10 75 6 0 10 -32 10 -77z"/>
</g>
</svg>
